<mxfile host="Electron" agent="Mozilla/5.0 (Windows NT 10.0; Win64; x64) AppleWebKit/537.36 (KHTML, like Gecko) draw.io/24.7.8 Chrome/128.0.6613.36 Electron/32.0.1 Safari/537.36" version="24.7.8">
  <diagram name="Page-1" id="yIN8_VAqQonzkeenX2_N">
    <mxGraphModel dx="1843" dy="956" grid="0" gridSize="10" guides="1" tooltips="1" connect="1" arrows="1" fold="1" page="1" pageScale="1" pageWidth="850" pageHeight="1100" math="0" shadow="0">
      <root>
        <mxCell id="0" />
        <mxCell id="1" parent="0" />
        <mxCell id="p6feTOQFf1OXa6c7WPYG-49" style="edgeStyle=orthogonalEdgeStyle;rounded=0;orthogonalLoop=1;jettySize=auto;html=1;exitX=0.5;exitY=0;exitDx=0;exitDy=0;entryX=0.5;entryY=1;entryDx=0;entryDy=0;" edge="1" parent="1" source="TVue_sV3NgNCGytV-evo-12" target="TVue_sV3NgNCGytV-evo-24">
          <mxGeometry relative="1" as="geometry" />
        </mxCell>
        <mxCell id="p6feTOQFf1OXa6c7WPYG-50" style="edgeStyle=orthogonalEdgeStyle;rounded=0;orthogonalLoop=1;jettySize=auto;html=1;exitX=0.5;exitY=0;exitDx=0;exitDy=0;entryX=0.5;entryY=1;entryDx=0;entryDy=0;" edge="1" parent="1" source="TVue_sV3NgNCGytV-evo-12" target="TVue_sV3NgNCGytV-evo-23">
          <mxGeometry relative="1" as="geometry" />
        </mxCell>
        <mxCell id="p6feTOQFf1OXa6c7WPYG-51" style="edgeStyle=orthogonalEdgeStyle;rounded=0;orthogonalLoop=1;jettySize=auto;html=1;exitX=0.5;exitY=0;exitDx=0;exitDy=0;entryX=0.5;entryY=1;entryDx=0;entryDy=0;" edge="1" parent="1" source="TVue_sV3NgNCGytV-evo-12" target="TVue_sV3NgNCGytV-evo-22">
          <mxGeometry relative="1" as="geometry" />
        </mxCell>
        <mxCell id="p6feTOQFf1OXa6c7WPYG-52" style="edgeStyle=orthogonalEdgeStyle;rounded=0;orthogonalLoop=1;jettySize=auto;html=1;exitX=0.5;exitY=0;exitDx=0;exitDy=0;entryX=0.5;entryY=1;entryDx=0;entryDy=0;" edge="1" parent="1" source="TVue_sV3NgNCGytV-evo-12" target="TVue_sV3NgNCGytV-evo-25">
          <mxGeometry relative="1" as="geometry" />
        </mxCell>
        <mxCell id="TVue_sV3NgNCGytV-evo-12" value="Student" style="whiteSpace=wrap;html=1;align=center;" parent="1" vertex="1">
          <mxGeometry x="612" y="324" width="100" height="40" as="geometry" />
        </mxCell>
        <mxCell id="p6feTOQFf1OXa6c7WPYG-54" style="edgeStyle=orthogonalEdgeStyle;rounded=0;orthogonalLoop=1;jettySize=auto;html=1;exitX=0.5;exitY=0;exitDx=0;exitDy=0;entryX=0.5;entryY=1;entryDx=0;entryDy=0;" edge="1" parent="1" source="TVue_sV3NgNCGytV-evo-13" target="TVue_sV3NgNCGytV-evo-31">
          <mxGeometry relative="1" as="geometry" />
        </mxCell>
        <mxCell id="p6feTOQFf1OXa6c7WPYG-55" style="edgeStyle=orthogonalEdgeStyle;rounded=0;orthogonalLoop=1;jettySize=auto;html=1;exitX=0.5;exitY=0;exitDx=0;exitDy=0;entryX=0.5;entryY=1;entryDx=0;entryDy=0;" edge="1" parent="1" source="TVue_sV3NgNCGytV-evo-13" target="TVue_sV3NgNCGytV-evo-21">
          <mxGeometry relative="1" as="geometry" />
        </mxCell>
        <mxCell id="TVue_sV3NgNCGytV-evo-13" value="Department" style="whiteSpace=wrap;html=1;align=center;" parent="1" vertex="1">
          <mxGeometry x="174" y="324" width="100" height="40" as="geometry" />
        </mxCell>
        <mxCell id="p6feTOQFf1OXa6c7WPYG-19" style="edgeStyle=orthogonalEdgeStyle;rounded=0;orthogonalLoop=1;jettySize=auto;html=1;exitX=0.5;exitY=1;exitDx=0;exitDy=0;entryX=0.5;entryY=0;entryDx=0;entryDy=0;" edge="1" parent="1" source="TVue_sV3NgNCGytV-evo-14" target="TVue_sV3NgNCGytV-evo-44">
          <mxGeometry relative="1" as="geometry" />
        </mxCell>
        <mxCell id="p6feTOQFf1OXa6c7WPYG-23" style="edgeStyle=orthogonalEdgeStyle;rounded=0;orthogonalLoop=1;jettySize=auto;html=1;exitX=0.5;exitY=1;exitDx=0;exitDy=0;entryX=0.5;entryY=0;entryDx=0;entryDy=0;" edge="1" parent="1" source="TVue_sV3NgNCGytV-evo-14" target="TVue_sV3NgNCGytV-evo-47">
          <mxGeometry relative="1" as="geometry" />
        </mxCell>
        <mxCell id="p6feTOQFf1OXa6c7WPYG-25" style="edgeStyle=orthogonalEdgeStyle;rounded=0;orthogonalLoop=1;jettySize=auto;html=1;exitX=0.5;exitY=1;exitDx=0;exitDy=0;entryX=0.5;entryY=0;entryDx=0;entryDy=0;" edge="1" parent="1" source="TVue_sV3NgNCGytV-evo-14" target="TVue_sV3NgNCGytV-evo-45">
          <mxGeometry relative="1" as="geometry" />
        </mxCell>
        <mxCell id="p6feTOQFf1OXa6c7WPYG-30" style="edgeStyle=orthogonalEdgeStyle;rounded=0;orthogonalLoop=1;jettySize=auto;html=1;exitX=0.5;exitY=1;exitDx=0;exitDy=0;" edge="1" parent="1" source="TVue_sV3NgNCGytV-evo-14" target="TVue_sV3NgNCGytV-evo-46">
          <mxGeometry relative="1" as="geometry" />
        </mxCell>
        <mxCell id="p6feTOQFf1OXa6c7WPYG-31" style="edgeStyle=orthogonalEdgeStyle;rounded=0;orthogonalLoop=1;jettySize=auto;html=1;exitX=0.5;exitY=1;exitDx=0;exitDy=0;" edge="1" parent="1" source="TVue_sV3NgNCGytV-evo-14" target="TVue_sV3NgNCGytV-evo-48">
          <mxGeometry relative="1" as="geometry" />
        </mxCell>
        <mxCell id="p6feTOQFf1OXa6c7WPYG-32" style="edgeStyle=orthogonalEdgeStyle;rounded=0;orthogonalLoop=1;jettySize=auto;html=1;exitX=0.5;exitY=1;exitDx=0;exitDy=0;" edge="1" parent="1" source="TVue_sV3NgNCGytV-evo-14" target="TVue_sV3NgNCGytV-evo-19">
          <mxGeometry relative="1" as="geometry" />
        </mxCell>
        <mxCell id="TVue_sV3NgNCGytV-evo-14" value="Instructor" style="whiteSpace=wrap;html=1;align=center;" parent="1" vertex="1">
          <mxGeometry x="174" y="680" width="100" height="40" as="geometry" />
        </mxCell>
        <mxCell id="p6feTOQFf1OXa6c7WPYG-13" style="edgeStyle=orthogonalEdgeStyle;rounded=0;orthogonalLoop=1;jettySize=auto;html=1;exitX=0.5;exitY=1;exitDx=0;exitDy=0;entryX=0.5;entryY=0;entryDx=0;entryDy=0;" edge="1" parent="1" source="TVue_sV3NgNCGytV-evo-15" target="TVue_sV3NgNCGytV-evo-18">
          <mxGeometry relative="1" as="geometry" />
        </mxCell>
        <mxCell id="p6feTOQFf1OXa6c7WPYG-16" style="edgeStyle=orthogonalEdgeStyle;rounded=0;orthogonalLoop=1;jettySize=auto;html=1;exitX=0.5;exitY=1;exitDx=0;exitDy=0;entryX=0.5;entryY=0;entryDx=0;entryDy=0;" edge="1" parent="1" source="TVue_sV3NgNCGytV-evo-15" target="TVue_sV3NgNCGytV-evo-39">
          <mxGeometry relative="1" as="geometry" />
        </mxCell>
        <mxCell id="p6feTOQFf1OXa6c7WPYG-93" style="edgeStyle=orthogonalEdgeStyle;rounded=0;orthogonalLoop=1;jettySize=auto;html=1;exitX=0.5;exitY=1;exitDx=0;exitDy=0;" edge="1" parent="1" source="TVue_sV3NgNCGytV-evo-15" target="TVue_sV3NgNCGytV-evo-34">
          <mxGeometry relative="1" as="geometry" />
        </mxCell>
        <mxCell id="p6feTOQFf1OXa6c7WPYG-94" style="edgeStyle=orthogonalEdgeStyle;rounded=0;orthogonalLoop=1;jettySize=auto;html=1;exitX=0.5;exitY=1;exitDx=0;exitDy=0;" edge="1" parent="1" source="TVue_sV3NgNCGytV-evo-15" target="TVue_sV3NgNCGytV-evo-35">
          <mxGeometry relative="1" as="geometry" />
        </mxCell>
        <mxCell id="TVue_sV3NgNCGytV-evo-15" value="Course" style="whiteSpace=wrap;html=1;align=center;" parent="1" vertex="1">
          <mxGeometry x="610" y="675" width="100" height="40" as="geometry" />
        </mxCell>
        <mxCell id="p6feTOQFf1OXa6c7WPYG-39" style="edgeStyle=orthogonalEdgeStyle;rounded=0;orthogonalLoop=1;jettySize=auto;html=1;exitX=0.5;exitY=1;exitDx=0;exitDy=0;entryX=0.5;entryY=0;entryDx=0;entryDy=0;" edge="1" parent="1" source="TVue_sV3NgNCGytV-evo-16" target="TVue_sV3NgNCGytV-evo-55">
          <mxGeometry relative="1" as="geometry" />
        </mxCell>
        <mxCell id="p6feTOQFf1OXa6c7WPYG-40" style="edgeStyle=orthogonalEdgeStyle;rounded=0;orthogonalLoop=1;jettySize=auto;html=1;exitX=0.5;exitY=1;exitDx=0;exitDy=0;entryX=0.5;entryY=0;entryDx=0;entryDy=0;" edge="1" parent="1" source="TVue_sV3NgNCGytV-evo-16" target="TVue_sV3NgNCGytV-evo-20">
          <mxGeometry relative="1" as="geometry" />
        </mxCell>
        <mxCell id="TVue_sV3NgNCGytV-evo-16" value="Topic" style="whiteSpace=wrap;html=1;align=center;" parent="1" vertex="1">
          <mxGeometry x="404" y="951" width="100" height="40" as="geometry" />
        </mxCell>
        <mxCell id="TVue_sV3NgNCGytV-evo-17" value="St_Id" style="ellipse;whiteSpace=wrap;html=1;align=center;fontStyle=4;" parent="1" vertex="1">
          <mxGeometry x="468" y="243" width="100" height="40" as="geometry" />
        </mxCell>
        <mxCell id="TVue_sV3NgNCGytV-evo-18" value="Cr_Id" style="ellipse;whiteSpace=wrap;html=1;align=center;fontStyle=4;" parent="1" vertex="1">
          <mxGeometry x="502" y="821" width="100" height="40" as="geometry" />
        </mxCell>
        <mxCell id="TVue_sV3NgNCGytV-evo-19" value="Ins_Id" style="ellipse;whiteSpace=wrap;html=1;align=center;fontStyle=4;" parent="1" vertex="1">
          <mxGeometry x="113" y="861" width="100" height="40" as="geometry" />
        </mxCell>
        <mxCell id="TVue_sV3NgNCGytV-evo-20" value="Top_Id" style="ellipse;whiteSpace=wrap;html=1;align=center;fontStyle=4;" parent="1" vertex="1">
          <mxGeometry x="468" y="1022" width="100" height="40" as="geometry" />
        </mxCell>
        <mxCell id="TVue_sV3NgNCGytV-evo-21" value="Dept_Id" style="ellipse;whiteSpace=wrap;html=1;align=center;fontStyle=4;" parent="1" vertex="1">
          <mxGeometry x="100" y="229" width="100" height="40" as="geometry" />
        </mxCell>
        <mxCell id="TVue_sV3NgNCGytV-evo-22" value="St_Lname" style="ellipse;whiteSpace=wrap;html=1;align=center;" parent="1" vertex="1">
          <mxGeometry x="697" y="203" width="100" height="40" as="geometry" />
        </mxCell>
        <mxCell id="TVue_sV3NgNCGytV-evo-23" value="St_Address" style="ellipse;whiteSpace=wrap;html=1;align=center;" parent="1" vertex="1">
          <mxGeometry x="612" y="175" width="100" height="40" as="geometry" />
        </mxCell>
        <mxCell id="TVue_sV3NgNCGytV-evo-24" value="St_Fname" style="ellipse;whiteSpace=wrap;html=1;align=center;" parent="1" vertex="1">
          <mxGeometry x="520" y="205" width="100" height="40" as="geometry" />
        </mxCell>
        <mxCell id="TVue_sV3NgNCGytV-evo-25" value="St_Age" style="ellipse;whiteSpace=wrap;html=1;align=center;dashed=1;" parent="1" vertex="1">
          <mxGeometry x="747.7" y="245" width="100" height="40" as="geometry" />
        </mxCell>
        <mxCell id="TVue_sV3NgNCGytV-evo-31" value="Dept_Name" style="ellipse;whiteSpace=wrap;html=1;align=center;" parent="1" vertex="1">
          <mxGeometry x="239" y="229" width="100" height="40" as="geometry" />
        </mxCell>
        <mxCell id="TVue_sV3NgNCGytV-evo-34" value="Crs_Name" style="ellipse;whiteSpace=wrap;html=1;align=center;" parent="1" vertex="1">
          <mxGeometry x="555" y="778" width="100" height="40" as="geometry" />
        </mxCell>
        <mxCell id="TVue_sV3NgNCGytV-evo-35" value="Crs_Duration" style="ellipse;whiteSpace=wrap;html=1;align=center;" parent="1" vertex="1">
          <mxGeometry x="672" y="778" width="100" height="40" as="geometry" />
        </mxCell>
        <mxCell id="TVue_sV3NgNCGytV-evo-39" value="Crs_Description" style="ellipse;whiteSpace=wrap;html=1;align=center;" parent="1" vertex="1">
          <mxGeometry x="739" y="821" width="100" height="40" as="geometry" />
        </mxCell>
        <mxCell id="TVue_sV3NgNCGytV-evo-44" value="Ins_Name" style="ellipse;whiteSpace=wrap;html=1;align=center;" parent="1" vertex="1">
          <mxGeometry x="-1.4210854715202004e-14" y="785" width="100" height="40" as="geometry" />
        </mxCell>
        <mxCell id="TVue_sV3NgNCGytV-evo-45" value="Ins_Address" style="ellipse;whiteSpace=wrap;html=1;align=center;" parent="1" vertex="1">
          <mxGeometry x="52.999999999999986" y="828" width="100" height="40" as="geometry" />
        </mxCell>
        <mxCell id="TVue_sV3NgNCGytV-evo-46" value="Ins_HourRate" style="ellipse;whiteSpace=wrap;html=1;align=center;dashed=1;" parent="1" vertex="1">
          <mxGeometry x="218" y="861" width="100" height="40" as="geometry" />
        </mxCell>
        <mxCell id="TVue_sV3NgNCGytV-evo-47" value="Ins_Salary" style="ellipse;whiteSpace=wrap;html=1;align=center;dashed=1;" parent="1" vertex="1">
          <mxGeometry x="333" y="785" width="100" height="40" as="geometry" />
        </mxCell>
        <mxCell id="TVue_sV3NgNCGytV-evo-48" value="Ins_Bouns" style="ellipse;whiteSpace=wrap;html=1;align=center;dashed=1;" parent="1" vertex="1">
          <mxGeometry x="282" y="828" width="100" height="40" as="geometry" />
        </mxCell>
        <mxCell id="TVue_sV3NgNCGytV-evo-55" value="Top_Name" style="ellipse;whiteSpace=wrap;html=1;align=center;" parent="1" vertex="1">
          <mxGeometry x="348" y="1022" width="100" height="40" as="geometry" />
        </mxCell>
        <mxCell id="p6feTOQFf1OXa6c7WPYG-3" value="" style="edgeStyle=orthogonalEdgeStyle;rounded=0;orthogonalLoop=1;jettySize=auto;html=1;" edge="1" parent="1" source="TVue_sV3NgNCGytV-evo-58" target="TVue_sV3NgNCGytV-evo-64">
          <mxGeometry relative="1" as="geometry" />
        </mxCell>
        <mxCell id="TVue_sV3NgNCGytV-evo-58" value="Take" style="shape=rhombus;perimeter=rhombusPerimeter;whiteSpace=wrap;html=1;align=center;" parent="1" vertex="1">
          <mxGeometry x="602" y="455" width="120" height="60" as="geometry" />
        </mxCell>
        <mxCell id="TVue_sV3NgNCGytV-evo-60" value="" style="endArrow=none;html=1;rounded=0;exitX=0.5;exitY=0;exitDx=0;exitDy=0;entryX=0.5;entryY=1;entryDx=0;entryDy=0;" parent="1" source="TVue_sV3NgNCGytV-evo-15" edge="1" target="TVue_sV3NgNCGytV-evo-58">
          <mxGeometry width="50" height="50" relative="1" as="geometry">
            <mxPoint x="1175" y="380" as="sourcePoint" />
            <mxPoint x="745" y="210" as="targetPoint" />
          </mxGeometry>
        </mxCell>
        <mxCell id="TVue_sV3NgNCGytV-evo-64" value="Grade" style="ellipse;whiteSpace=wrap;html=1;align=center;" parent="1" vertex="1">
          <mxGeometry x="477" y="465" width="100" height="40" as="geometry" />
        </mxCell>
        <mxCell id="TVue_sV3NgNCGytV-evo-66" value="Have" style="shape=rhombus;perimeter=rhombusPerimeter;whiteSpace=wrap;html=1;align=center;" parent="1" vertex="1">
          <mxGeometry x="59" y="455" width="120" height="60" as="geometry" />
        </mxCell>
        <mxCell id="TVue_sV3NgNCGytV-evo-79" style="edgeStyle=orthogonalEdgeStyle;rounded=0;orthogonalLoop=1;jettySize=auto;html=1;exitX=1;exitY=0.5;exitDx=0;exitDy=0;entryX=0;entryY=0.5;entryDx=0;entryDy=0;" parent="1" source="TVue_sV3NgNCGytV-evo-72" target="TVue_sV3NgNCGytV-evo-77" edge="1">
          <mxGeometry relative="1" as="geometry" />
        </mxCell>
        <mxCell id="TVue_sV3NgNCGytV-evo-72" value="Manage" style="shape=rhombus;perimeter=rhombusPerimeter;whiteSpace=wrap;html=1;align=center;" parent="1" vertex="1">
          <mxGeometry x="184" y="455" width="120" height="60" as="geometry" />
        </mxCell>
        <mxCell id="TVue_sV3NgNCGytV-evo-77" value="HiringDate" style="ellipse;whiteSpace=wrap;html=1;align=center;" parent="1" vertex="1">
          <mxGeometry x="325" y="465" width="100" height="40" as="geometry" />
        </mxCell>
        <mxCell id="TVue_sV3NgNCGytV-evo-91" value="" style="edgeStyle=orthogonalEdgeStyle;rounded=0;orthogonalLoop=1;jettySize=auto;html=1;" parent="1" source="TVue_sV3NgNCGytV-evo-81" target="TVue_sV3NgNCGytV-evo-90" edge="1">
          <mxGeometry relative="1" as="geometry" />
        </mxCell>
        <mxCell id="TVue_sV3NgNCGytV-evo-81" value="Teach" style="shape=rhombus;perimeter=rhombusPerimeter;whiteSpace=wrap;html=1;align=center;" parent="1" vertex="1">
          <mxGeometry x="380" y="600" width="120" height="60" as="geometry" />
        </mxCell>
        <mxCell id="TVue_sV3NgNCGytV-evo-84" value="" style="endArrow=none;html=1;rounded=0;exitX=1;exitY=0.5;exitDx=0;exitDy=0;entryX=0;entryY=0.5;entryDx=0;entryDy=0;" parent="1" source="TVue_sV3NgNCGytV-evo-81" target="TVue_sV3NgNCGytV-evo-15" edge="1">
          <mxGeometry width="50" height="50" relative="1" as="geometry">
            <mxPoint x="375" y="505" as="sourcePoint" />
            <mxPoint x="630" y="480" as="targetPoint" />
          </mxGeometry>
        </mxCell>
        <mxCell id="TVue_sV3NgNCGytV-evo-90" value="Evaluation" style="ellipse;whiteSpace=wrap;html=1;align=center;" parent="1" vertex="1">
          <mxGeometry x="390" y="526" width="100" height="40" as="geometry" />
        </mxCell>
        <mxCell id="TVue_sV3NgNCGytV-evo-92" value="Classified" style="shape=rhombus;perimeter=rhombusPerimeter;whiteSpace=wrap;html=1;align=center;" parent="1" vertex="1">
          <mxGeometry x="394" y="837" width="120" height="60" as="geometry" />
        </mxCell>
        <mxCell id="TVue_sV3NgNCGytV-evo-98" value="Have" style="shape=rhombus;perimeter=rhombusPerimeter;whiteSpace=wrap;html=1;align=center;" parent="1" vertex="1">
          <mxGeometry x="380" y="314" width="120" height="60" as="geometry" />
        </mxCell>
        <mxCell id="p6feTOQFf1OXa6c7WPYG-34" value="" style="endArrow=none;html=1;rounded=0;exitX=1;exitY=0.5;exitDx=0;exitDy=0;entryX=1;entryY=0.5;entryDx=0;entryDy=0;" edge="1" parent="1" target="TVue_sV3NgNCGytV-evo-14">
          <mxGeometry width="50" height="50" relative="1" as="geometry">
            <mxPoint x="380" y="631" as="sourcePoint" />
            <mxPoint x="490" y="696" as="targetPoint" />
          </mxGeometry>
        </mxCell>
        <mxCell id="p6feTOQFf1OXa6c7WPYG-35" value="" style="shape=link;html=1;rounded=0;exitX=0.5;exitY=1;exitDx=0;exitDy=0;entryX=0.5;entryY=0;entryDx=0;entryDy=0;" edge="1" parent="1" source="TVue_sV3NgNCGytV-evo-12" target="TVue_sV3NgNCGytV-evo-58">
          <mxGeometry relative="1" as="geometry">
            <mxPoint x="639.8699999999994" y="193.93000000000006" as="sourcePoint" />
            <mxPoint x="756" y="263" as="targetPoint" />
          </mxGeometry>
        </mxCell>
        <mxCell id="p6feTOQFf1OXa6c7WPYG-48" style="edgeStyle=orthogonalEdgeStyle;rounded=0;orthogonalLoop=1;jettySize=auto;html=1;exitX=0.5;exitY=0;exitDx=0;exitDy=0;entryX=0.589;entryY=1.009;entryDx=0;entryDy=0;entryPerimeter=0;" edge="1" parent="1" source="TVue_sV3NgNCGytV-evo-12" target="TVue_sV3NgNCGytV-evo-17">
          <mxGeometry relative="1" as="geometry" />
        </mxCell>
        <mxCell id="p6feTOQFf1OXa6c7WPYG-53" style="edgeStyle=orthogonalEdgeStyle;rounded=0;orthogonalLoop=1;jettySize=auto;html=1;exitX=0.5;exitY=1;exitDx=0;exitDy=0;" edge="1" parent="1" source="TVue_sV3NgNCGytV-evo-25" target="TVue_sV3NgNCGytV-evo-25">
          <mxGeometry relative="1" as="geometry" />
        </mxCell>
        <mxCell id="p6feTOQFf1OXa6c7WPYG-56" value="" style="shape=link;html=1;rounded=0;entryX=0.86;entryY=0.037;entryDx=0;entryDy=0;entryPerimeter=0;exitX=0.5;exitY=1;exitDx=0;exitDy=0;" edge="1" parent="1" source="TVue_sV3NgNCGytV-evo-72" target="TVue_sV3NgNCGytV-evo-14">
          <mxGeometry relative="1" as="geometry">
            <mxPoint x="216" y="566" as="sourcePoint" />
            <mxPoint x="376" y="566" as="targetPoint" />
          </mxGeometry>
        </mxCell>
        <mxCell id="p6feTOQFf1OXa6c7WPYG-59" value="" style="shape=link;html=1;rounded=0;entryX=0.134;entryY=-0.01;entryDx=0;entryDy=0;entryPerimeter=0;exitX=0.5;exitY=1;exitDx=0;exitDy=0;" edge="1" parent="1" source="TVue_sV3NgNCGytV-evo-66" target="TVue_sV3NgNCGytV-evo-14">
          <mxGeometry relative="1" as="geometry">
            <mxPoint x="230" y="515" as="sourcePoint" />
            <mxPoint x="224" y="681" as="targetPoint" />
          </mxGeometry>
        </mxCell>
        <mxCell id="p6feTOQFf1OXa6c7WPYG-60" value="" style="endArrow=none;html=1;rounded=0;entryX=0.25;entryY=1;entryDx=0;entryDy=0;" edge="1" parent="1" target="TVue_sV3NgNCGytV-evo-13">
          <mxGeometry width="50" height="50" relative="1" as="geometry">
            <mxPoint x="117" y="455" as="sourcePoint" />
            <mxPoint x="167" y="405" as="targetPoint" />
          </mxGeometry>
        </mxCell>
        <mxCell id="p6feTOQFf1OXa6c7WPYG-61" value="" style="endArrow=none;html=1;rounded=0;entryX=0.859;entryY=0.96;entryDx=0;entryDy=0;entryPerimeter=0;" edge="1" parent="1" target="TVue_sV3NgNCGytV-evo-13">
          <mxGeometry width="50" height="50" relative="1" as="geometry">
            <mxPoint x="243" y="455" as="sourcePoint" />
            <mxPoint x="325" y="364" as="targetPoint" />
          </mxGeometry>
        </mxCell>
        <mxCell id="p6feTOQFf1OXa6c7WPYG-62" value="" style="shape=link;html=1;rounded=0;" edge="1" parent="1">
          <mxGeometry relative="1" as="geometry">
            <mxPoint x="495" y="344" as="sourcePoint" />
            <mxPoint x="612" y="347" as="targetPoint" />
          </mxGeometry>
        </mxCell>
        <mxCell id="p6feTOQFf1OXa6c7WPYG-66" value="" style="endArrow=none;html=1;rounded=0;exitX=1;exitY=0.5;exitDx=0;exitDy=0;" edge="1" parent="1" source="TVue_sV3NgNCGytV-evo-13">
          <mxGeometry width="50" height="50" relative="1" as="geometry">
            <mxPoint x="330" y="395" as="sourcePoint" />
            <mxPoint x="380" y="345" as="targetPoint" />
          </mxGeometry>
        </mxCell>
        <mxCell id="p6feTOQFf1OXa6c7WPYG-69" value="N&lt;div&gt;&lt;br&gt;&lt;/div&gt;" style="text;html=1;align=center;verticalAlign=middle;resizable=0;points=[];autosize=1;strokeColor=none;fillColor=none;" vertex="1" parent="1">
          <mxGeometry x="585" y="320" width="27" height="41" as="geometry" />
        </mxCell>
        <mxCell id="p6feTOQFf1OXa6c7WPYG-70" value="N&lt;div&gt;&lt;br&gt;&lt;/div&gt;" style="text;html=1;align=center;verticalAlign=middle;resizable=0;points=[];autosize=1;strokeColor=none;fillColor=none;" vertex="1" parent="1">
          <mxGeometry x="274" y="320" width="27" height="41" as="geometry" />
        </mxCell>
        <mxCell id="p6feTOQFf1OXa6c7WPYG-72" value="N&lt;div&gt;&lt;br&gt;&lt;/div&gt;" style="text;html=1;align=center;verticalAlign=middle;resizable=0;points=[];autosize=1;strokeColor=none;fillColor=none;" vertex="1" parent="1">
          <mxGeometry x="657.7" y="649" width="27" height="41" as="geometry" />
        </mxCell>
        <mxCell id="p6feTOQFf1OXa6c7WPYG-73" value="N&lt;div&gt;&lt;br&gt;&lt;/div&gt;" style="text;html=1;align=center;verticalAlign=middle;resizable=0;points=[];autosize=1;strokeColor=none;fillColor=none;" vertex="1" parent="1">
          <mxGeometry x="665" y="358" width="27" height="41" as="geometry" />
        </mxCell>
        <mxCell id="p6feTOQFf1OXa6c7WPYG-74" value="1&lt;div&gt;&lt;br&gt;&lt;/div&gt;" style="text;html=1;align=center;verticalAlign=middle;resizable=0;points=[];autosize=1;strokeColor=none;fillColor=none;" vertex="1" parent="1">
          <mxGeometry x="259" y="656" width="25" height="41" as="geometry" />
        </mxCell>
        <mxCell id="p6feTOQFf1OXa6c7WPYG-75" value="1&lt;div&gt;&lt;br&gt;&lt;/div&gt;" style="text;html=1;align=center;verticalAlign=middle;resizable=0;points=[];autosize=1;strokeColor=none;fillColor=none;" vertex="1" parent="1">
          <mxGeometry x="255.5" y="366" width="25" height="41" as="geometry" />
        </mxCell>
        <mxCell id="p6feTOQFf1OXa6c7WPYG-76" value="N&lt;div&gt;&lt;br&gt;&lt;/div&gt;" style="text;html=1;align=center;verticalAlign=middle;resizable=0;points=[];autosize=1;strokeColor=none;fillColor=none;" vertex="1" parent="1">
          <mxGeometry x="181" y="653" width="27" height="41" as="geometry" />
        </mxCell>
        <mxCell id="p6feTOQFf1OXa6c7WPYG-77" value="1&lt;div&gt;&lt;br&gt;&lt;/div&gt;" style="text;html=1;align=center;verticalAlign=middle;resizable=0;points=[];autosize=1;strokeColor=none;fillColor=none;" vertex="1" parent="1">
          <mxGeometry x="156" y="358" width="25" height="41" as="geometry" />
        </mxCell>
        <mxCell id="p6feTOQFf1OXa6c7WPYG-80" value="N&lt;div&gt;&lt;br&gt;&lt;/div&gt;" style="text;html=1;align=center;verticalAlign=middle;resizable=0;points=[];autosize=1;strokeColor=none;fillColor=none;" vertex="1" parent="1">
          <mxGeometry x="585" y="660" width="27" height="41" as="geometry" />
        </mxCell>
        <mxCell id="p6feTOQFf1OXa6c7WPYG-81" value="N&lt;div&gt;&lt;br&gt;&lt;/div&gt;" style="text;html=1;align=center;verticalAlign=middle;resizable=0;points=[];autosize=1;strokeColor=none;fillColor=none;" vertex="1" parent="1">
          <mxGeometry x="277" y="690" width="27" height="41" as="geometry" />
        </mxCell>
        <mxCell id="p6feTOQFf1OXa6c7WPYG-83" value="N&lt;div&gt;&lt;br&gt;&lt;/div&gt;" style="text;html=1;align=center;verticalAlign=middle;resizable=0;points=[];autosize=1;strokeColor=none;fillColor=none;" vertex="1" parent="1">
          <mxGeometry x="450" y="928" width="27" height="41" as="geometry" />
        </mxCell>
        <mxCell id="p6feTOQFf1OXa6c7WPYG-84" value="N&lt;div&gt;&lt;br&gt;&lt;/div&gt;" style="text;html=1;align=center;verticalAlign=middle;resizable=0;points=[];autosize=1;strokeColor=none;fillColor=none;" vertex="1" parent="1">
          <mxGeometry x="815" y="1055" width="27" height="41" as="geometry" />
        </mxCell>
        <mxCell id="p6feTOQFf1OXa6c7WPYG-87" value="" style="endArrow=none;html=1;rounded=0;" edge="1" parent="1">
          <mxGeometry width="50" height="50" relative="1" as="geometry">
            <mxPoint x="454" y="949" as="sourcePoint" />
            <mxPoint x="454" y="897" as="targetPoint" />
          </mxGeometry>
        </mxCell>
        <mxCell id="p6feTOQFf1OXa6c7WPYG-89" value="" style="shape=link;html=1;rounded=0;exitX=0.483;exitY=0.05;exitDx=0;exitDy=0;exitPerimeter=0;" edge="1" parent="1" source="TVue_sV3NgNCGytV-evo-92">
          <mxGeometry relative="1" as="geometry">
            <mxPoint x="458" y="835" as="sourcePoint" />
            <mxPoint x="607" y="708" as="targetPoint" />
          </mxGeometry>
        </mxCell>
        <mxCell id="p6feTOQFf1OXa6c7WPYG-90" value="N" style="resizable=0;html=1;whiteSpace=wrap;align=right;verticalAlign=bottom;" connectable="0" vertex="1" parent="p6feTOQFf1OXa6c7WPYG-89">
          <mxGeometry x="1" relative="1" as="geometry" />
        </mxCell>
      </root>
    </mxGraphModel>
  </diagram>
</mxfile>
